<?xml version='1.0' encoding='utf-8'?>
<mlt LC_NUMERIC="C" producer="main_bin" version="7.9.0" root="D:/Programming/Github/stdVBA-scripts/stdVBA-03-getting-started/kdenlive">
 <profile frame_rate_num="25" sample_aspect_num="1" display_aspect_den="9" colorspace="709" progressive="1" description="HD 1080p 25 fps" display_aspect_num="16" frame_rate_den="1" width="1920" height="1080" sample_aspect_den="1"/>
 <producer id="producer1" in="00:00:00.000" out="00:01:37.920">
  <property name="length">2449</property>
  <property name="eof">pause</property>
  <property name="resource">C:/Users/sancarn/Music/Innovation Pulse ext v1.1.mp3</property>
  <property name="meta.media.nb_streams">1</property>
  <property name="meta.media.0.stream.type">audio</property>
  <property name="meta.media.0.codec.sample_fmt">fltp</property>
  <property name="meta.media.0.codec.sample_rate">48000</property>
  <property name="meta.media.0.codec.channels">2</property>
  <property name="meta.media.0.codec.name">mp3float</property>
  <property name="meta.media.0.codec.long_name">MP3 (MPEG audio layer 3)</property>
  <property name="meta.media.0.codec.bit_rate">320000</property>
  <property name="meta.attr.0.stream.encoder.markup">Lavc58.91</property>
  <property name="meta.attr.artist.markup">Udio v1.5</property>
  <property name="meta.attr.title.markup">Innovation Pulse ext v1.1</property>
  <property name="meta.attr.year.markup">2024</property>
  <property name="meta.attr.encoder.markup">Lavf58.45.100</property>
  <property name="seekable">1</property>
  <property name="audio_index">0</property>
  <property name="video_index">-1</property>
  <property name="mute_on_pause">1</property>
  <property name="mlt_service">avformat</property>
  <property name="kdenlive:clipname"/>
  <property name="kdenlive:clip_type">1</property>
  <property name="kdenlive:folderid">-1</property>
  <property name="kdenlive:id">2</property>
  <property name="kdenlive:file_size">3919804</property>
  <property name="kdenlive:file_hash">f1d58a56b75801bf64d876229280ed48</property>
  <property name="kdenlive:audio_max0">229</property>
 </producer>
 <producer id="producer3" in="00:00:00.000" out="00:00:10.720">
  <property name="length">269</property>
  <property name="eof">pause</property>
  <property name="resource"/>
  <property name="progressive">1</property>
  <property name="aspect_ratio">1</property>
  <property name="seekable">1</property>
  <property name="mlt_service">kdenlivetitle</property>
  <property name="kdenlive:duration">125</property>
  <property name="kdenlive:clipname">std</property>
  <property name="xmldata">&lt;kdenlivetitle duration="125" LC_NUMERIC="C" width="1920" height="1080" out="124">&#xd;&#xd;&#xd;&#xd;
 &lt;item type="QGraphicsPixmapItem" z-index="1">&#xd;&#xd;&#xd;&#xd;
  &lt;position x="905" y="292">&#xd;&#xd;&#xd;&#xd;
   &lt;transform>1,0,0,0,1,0,0,0,1&lt;/transform>&#xd;&#xd;&#xd;&#xd;
  &lt;/position>&#xd;&#xd;&#xd;&#xd;
  &lt;content url="C:/Users/sancarn/Pictures/VBA.png"/>&#xd;&#xd;&#xd;&#xd;
 &lt;/item>&#xd;&#xd;&#xd;&#xd;
 &lt;item type="QGraphicsTextItem" z-index="0">&#xd;&#xd;&#xd;&#xd;
  &lt;position x="179" y="322">&#xd;&#xd;&#xd;&#xd;
   &lt;transform>1,0,0,0,1,0,0,0,1&lt;/transform>&#xd;&#xd;&#xd;&#xd;
  &lt;/position>&#xd;&#xd;&#xd;&#xd;
  &lt;content line-spacing="0" shadow="0;#64000000;3;3;3" font-underline="0" box-height="468" font-outline-color="0,0,0,255" font="Consolas" letter-spacing="0" font-pixel-size="400" font-italic="0" typewriter="0;2;1;0;0" alignment="1" font-weight="50" font-outline="0" box-width="660" font-color="255,255,255,255">std&lt;/content>&#xd;&#xd;&#xd;&#xd;
 &lt;/item>&#xd;&#xd;&#xd;&#xd;
 &lt;startviewport rect="0,0,1920,1080"/>&#xd;&#xd;&#xd;&#xd;
 &lt;endviewport rect="0,0,1920,1080"/>&#xd;&#xd;&#xd;&#xd;
 &lt;background color="0,0,0,0"/>&#xd;&#xd;&#xd;&#xd;
&lt;/kdenlivetitle>&#xd;&#xd;&#xd;&#xd;
</property>
  <property name="kdenlive:folderid">-1</property>
  <property name="kdenlive:clip_type">2</property>
  <property name="kdenlive:id">3</property>
  <property name="kdenlive:file_hash">c504fb3872b6091223b3b4408fc1157d</property>
  <property name="force_reload">0</property>
  <property name="meta.media.width">1920</property>
  <property name="meta.media.height">1080</property>
 </producer>
 <producer id="producer4" in="00:00:00.000" out="00:00:01.920">
  <property name="length">49</property>
  <property name="eof">pause</property>
  <property name="resource">D:/Programming/Github/stdVBA-scripts/SharedResources/ThanksForWatching.mp3</property>
  <property name="meta.media.nb_streams">1</property>
  <property name="meta.media.0.stream.type">audio</property>
  <property name="meta.media.0.codec.sample_fmt">fltp</property>
  <property name="meta.media.0.codec.sample_rate">44100</property>
  <property name="meta.media.0.codec.channels">2</property>
  <property name="meta.media.0.codec.name">mp3float</property>
  <property name="meta.media.0.codec.long_name">MP3 (MPEG audio layer 3)</property>
  <property name="meta.media.0.codec.bit_rate">96000</property>
  <property name="meta.attr.0.stream.encoder.markup">LAME3.100</property>
  <property name="seekable">1</property>
  <property name="audio_index">0</property>
  <property name="video_index">-1</property>
  <property name="mute_on_pause">1</property>
  <property name="mlt_service">avformat</property>
  <property name="aspect_ratio">1</property>
  <property name="text">INVALID</property>
  <property name="fgcolour">0xffffffff</property>
  <property name="bgcolour">0x00000000</property>
  <property name="olcolour">0x00000000</property>
  <property name="outline">0</property>
  <property name="align">left</property>
  <property name="pad">0</property>
  <property name="family">Sans</property>
  <property name="size">48</property>
  <property name="style">normal</property>
  <property name="weight">400</property>
  <property name="encoding">UTF-8</property>
  <property name="kdenlive:clipname"/>
  <property name="kdenlive:clip_type">1</property>
  <property name="kdenlive:folderid">-1</property>
  <property name="kdenlive:id">4</property>
  <property name="kdenlive:file_size">23823</property>
  <property name="kdenlive:file_hash">00b88655232ae7f3fc375617758b8598</property>
  <property name="kdenlive:audio_max0">163</property>
  <property name="kdenlive:orig_service">avformat</property>
 </producer>
 <producer id="producer5" in="00:00:00.000" out="00:07:25.040">
  <property name="length">11127</property>
  <property name="eof">pause</property>
  <property name="resource">D:/Programming/Github/stdVBA-scripts/SharedResources/BRING TO DEATH.m4a</property>
  <property name="meta.media.nb_streams">2</property>
  <property name="meta.media.0.stream.type">audio</property>
  <property name="meta.media.0.codec.sample_fmt">fltp</property>
  <property name="meta.media.0.codec.sample_rate">44100</property>
  <property name="meta.media.0.codec.channels">2</property>
  <property name="meta.media.0.codec.name">aac</property>
  <property name="meta.media.0.codec.long_name">AAC (Advanced Audio Coding)</property>
  <property name="meta.media.0.codec.bit_rate">257987</property>
  <property name="meta.attr.0.stream.creation_time.markup">2022-01-26T19:40:31.000000Z</property>
  <property name="meta.attr.0.stream.language.markup">eng</property>
  <property name="meta.attr.0.stream.vendor_id.markup">[0][0][0][0]</property>
  <property name="meta.media.1.stream.type">video</property>
  <property name="meta.media.1.stream.frame_rate">nan</property>
  <property name="meta.media.1.stream.sample_aspect_ratio">0</property>
  <property name="meta.media.1.codec.width">318</property>
  <property name="meta.media.1.codec.height">318</property>
  <property name="meta.media.1.codec.rotate">0</property>
  <property name="meta.media.1.codec.pix_fmt">yuvj444p</property>
  <property name="meta.media.1.codec.sample_aspect_ratio">1</property>
  <property name="meta.media.1.codec.colorspace">601</property>
  <property name="meta.media.1.codec.name">mjpeg</property>
  <property name="meta.media.1.codec.long_name">MJPEG (Motion JPEG)</property>
  <property name="meta.media.1.codec.bit_rate">0</property>
  <property name="meta.attr.major_brand.markup">M4A </property>
  <property name="meta.attr.minor_version.markup">0</property>
  <property name="meta.attr.compatible_brands.markup">M4A mp42isom</property>
  <property name="meta.attr.creation_time.markup">2022-01-26T19:40:31.000000Z</property>
  <property name="meta.attr.artist.markup">ICKY</property>
  <property name="meta.attr.album.markup">NOT FORGOT</property>
  <property name="meta.attr.date.markup">2022</property>
  <property name="meta.attr.composer.markup">Rich Charlton</property>
  <property name="meta.attr.title.markup">BRING TO DEATH</property>
  <property name="meta.attr.encoder.markup">GarageBand for iOS 2.3.12</property>
  <property name="meta.attr.iTunSMPB.markup"> 00000000 00000840 00000191 00000000012B762F 00000000 00000000 00000000 00000000 00000000 00000000 00000000 00000000</property>
  <property name="seekable">1</property>
  <property name="meta.media.sample_aspect_num">72</property>
  <property name="meta.media.sample_aspect_den">72</property>
  <property name="aspect_ratio">1</property>
  <property name="audio_index">0</property>
  <property name="video_index">-1</property>
  <property name="mute_on_pause">1</property>
  <property name="mlt_service">avformat</property>
  <property name="text">INVALID</property>
  <property name="fgcolour">0xffffffff</property>
  <property name="bgcolour">0x00000000</property>
  <property name="olcolour">0x00000000</property>
  <property name="outline">0</property>
  <property name="align">left</property>
  <property name="pad">0</property>
  <property name="family">Sans</property>
  <property name="size">48</property>
  <property name="style">normal</property>
  <property name="weight">400</property>
  <property name="encoding">UTF-8</property>
  <property name="kdenlive:clipname"/>
  <property name="meta.media.frame_rate_num">90000</property>
  <property name="meta.media.frame_rate_den">1</property>
  <property name="meta.media.colorspace">601</property>
  <property name="meta.media.color_trc">2</property>
  <property name="meta.media.has_b_frames">0</property>
  <property name="meta.media.width">318</property>
  <property name="meta.media.height">318</property>
  <property name="meta.media.color_range">full</property>
  <property name="meta.media.top_field_first">0</property>
  <property name="meta.media.progressive">1</property>
  <property name="kdenlive:clip_type">0</property>
  <property name="set.test_image">1</property>
  <property name="kdenlive:folderid">-1</property>
  <property name="kdenlive:id">5</property>
  <property name="kdenlive:file_size">14532755</property>
  <property name="kdenlive:file_hash">c94af757ff63aea6b4a9ac4fbe188f66</property>
  <property name="kdenlive:audio_max0">252</property>
  <property name="kdenlive:orig_service">avformat</property>
 </producer>
 <producer id="producer0" in="00:00:00.000" out="00:00:07.920">
  <property name="length">199</property>
  <property name="eof">pause</property>
  <property name="resource">D:/Programming/Github/stdVBA-scripts/SharedResources/intro.mp3</property>
  <property name="meta.media.nb_streams">1</property>
  <property name="meta.media.0.stream.type">audio</property>
  <property name="meta.media.0.codec.sample_fmt">fltp</property>
  <property name="meta.media.0.codec.sample_rate">44100</property>
  <property name="meta.media.0.codec.channels">2</property>
  <property name="meta.media.0.codec.name">mp3float</property>
  <property name="meta.media.0.codec.long_name">MP3 (MPEG audio layer 3)</property>
  <property name="meta.media.0.codec.bit_rate">96000</property>
  <property name="meta.attr.0.stream.encoder.markup">LAME3.100</property>
  <property name="seekable">1</property>
  <property name="audio_index">0</property>
  <property name="video_index">-1</property>
  <property name="mute_on_pause">1</property>
  <property name="mlt_service">avformat</property>
  <property name="kdenlive:clipname"/>
  <property name="kdenlive:clip_type">1</property>
  <property name="kdenlive:folderid">-1</property>
  <property name="kdenlive:id">6</property>
  <property name="kdenlive:file_size">95921</property>
  <property name="kdenlive:file_hash">2de2a686c945bc9feffcf3c135fac11a</property>
  <property name="kdenlive:audio_max0">182</property>
 </producer>
 <producer id="producer2" in="00:00:00.000" out="00:00:07.600">
  <property name="length">191</property>
  <property name="eof">pause</property>
  <property name="resource">D:/Programming/Github/stdVBA-scripts/SharedResources/intro.mp4</property>
  <property name="audio_index">1</property>
  <property name="video_index">0</property>
  <property name="mute_on_pause">0</property>
  <property name="mlt_service">avformat-novalidate</property>
  <property name="meta.media.nb_streams">2</property>
  <property name="meta.media.0.stream.type">video</property>
  <property name="meta.media.0.stream.frame_rate">25</property>
  <property name="meta.media.0.stream.sample_aspect_ratio">1</property>
  <property name="meta.media.0.codec.width">1920</property>
  <property name="meta.media.0.codec.height">1080</property>
  <property name="meta.media.0.codec.rotate">0</property>
  <property name="meta.media.0.codec.pix_fmt">yuv420p</property>
  <property name="meta.media.0.codec.sample_aspect_ratio">1</property>
  <property name="meta.media.0.codec.colorspace">709</property>
  <property name="meta.media.0.codec.color_trc">1</property>
  <property name="meta.media.0.codec.name">h264</property>
  <property name="meta.media.0.codec.long_name">H.264 / AVC / MPEG-4 AVC / MPEG-4 part 10</property>
  <property name="meta.media.0.codec.bit_rate">134269</property>
  <property name="meta.attr.0.stream.handler_name.markup">VideoHandler</property>
  <property name="meta.attr.0.stream.vendor_id.markup">[0][0][0][0]</property>
  <property name="meta.media.1.stream.type">audio</property>
  <property name="meta.media.1.codec.sample_fmt">fltp</property>
  <property name="meta.media.1.codec.sample_rate">48000</property>
  <property name="meta.media.1.codec.channels">2</property>
  <property name="meta.media.1.codec.name">aac</property>
  <property name="meta.media.1.codec.long_name">AAC (Advanced Audio Coding)</property>
  <property name="meta.media.1.codec.bit_rate">2285</property>
  <property name="meta.attr.1.stream.handler_name.markup">SoundHandler</property>
  <property name="meta.attr.1.stream.vendor_id.markup">[0][0][0][0]</property>
  <property name="meta.attr.major_brand.markup">isom</property>
  <property name="meta.attr.minor_version.markup">512</property>
  <property name="meta.attr.compatible_brands.markup">isomiso2avc1mp41</property>
  <property name="meta.attr.encoder.markup">Lavf59.16.100</property>
  <property name="seekable">1</property>
  <property name="meta.media.sample_aspect_num">1</property>
  <property name="meta.media.sample_aspect_den">1</property>
  <property name="aspect_ratio">1</property>
  <property name="kdenlive:clipname"/>
  <property name="meta.media.frame_rate_num">25</property>
  <property name="meta.media.frame_rate_den">1</property>
  <property name="meta.media.colorspace">709</property>
  <property name="meta.media.color_trc">1</property>
  <property name="meta.media.has_b_frames">2</property>
  <property name="meta.media.width">1920</property>
  <property name="meta.media.height">1080</property>
  <property name="meta.media.color_range">mpeg</property>
  <property name="meta.media.top_field_first">0</property>
  <property name="meta.media.progressive">1</property>
  <property name="kdenlive:clip_type">0</property>
  <property name="kdenlive:folderid">-1</property>
  <property name="kdenlive:id">7</property>
  <property name="kdenlive:file_size">137755</property>
  <property name="kdenlive:file_hash">f345ee944666c43e40da4bcf2941a9cb</property>
  <property name="kdenlive:audio_max1">1</property>
 </producer>
 <producer id="producer6" in="00:00:00.000" out="00:00:46.560">
  <property name="length">1165</property>
  <property name="eof">pause</property>
  <property name="resource">D:/Programming/Github/stdVBA-scripts/stdVBA-03-getting-started/audacity/voiceover.mp3</property>
  <property name="meta.media.nb_streams">1</property>
  <property name="meta.media.0.stream.type">audio</property>
  <property name="meta.media.0.codec.sample_fmt">fltp</property>
  <property name="meta.media.0.codec.sample_rate">48000</property>
  <property name="meta.media.0.codec.channels">1</property>
  <property name="meta.media.0.codec.name">mp3float</property>
  <property name="meta.media.0.codec.long_name">MP3 (MPEG audio layer 3)</property>
  <property name="meta.media.0.codec.bit_rate">96000</property>
  <property name="meta.attr.0.stream.encoder.markup">LAME3.100</property>
  <property name="seekable">1</property>
  <property name="audio_index">0</property>
  <property name="video_index">-1</property>
  <property name="mute_on_pause">1</property>
  <property name="mlt_service">avformat</property>
  <property name="kdenlive:clipname"/>
  <property name="kdenlive:clip_type">1</property>
  <property name="kdenlive:folderid">-1</property>
  <property name="kdenlive:id">8</property>
  <property name="kdenlive:file_size">559403</property>
  <property name="kdenlive:file_hash">2bb584a026d76f56715878455a5160d2</property>
  <property name="kdenlive:audio_max0">181</property>
 </producer>
 <producer id="producer7" in="00:00:00.000" out="00:00:04.360">
  <property name="length">110</property>
  <property name="eof">pause</property>
  <property name="resource">D:/Programming/Github/stdVBA-scripts/stdVBA-03-getting-started/motioncanvas/output/project.mp4</property>
  <property name="meta.media.nb_streams">1</property>
  <property name="meta.media.0.stream.type">video</property>
  <property name="meta.media.0.stream.frame_rate">60</property>
  <property name="meta.media.0.stream.sample_aspect_ratio">0</property>
  <property name="meta.media.0.codec.width">1920</property>
  <property name="meta.media.0.codec.height">1080</property>
  <property name="meta.media.0.codec.rotate">0</property>
  <property name="meta.media.0.codec.pix_fmt">yuv420p</property>
  <property name="meta.media.0.codec.sample_aspect_ratio">0</property>
  <property name="meta.media.0.codec.colorspace">709</property>
  <property name="meta.media.0.codec.name">h264</property>
  <property name="meta.media.0.codec.long_name">H.264 / AVC / MPEG-4 AVC / MPEG-4 part 10</property>
  <property name="meta.media.0.codec.bit_rate">100950</property>
  <property name="meta.attr.0.stream.handler_name.markup">VideoHandler</property>
  <property name="meta.attr.0.stream.vendor_id.markup">[0][0][0][0]</property>
  <property name="meta.attr.major_brand.markup">isom</property>
  <property name="meta.attr.minor_version.markup">512</property>
  <property name="meta.attr.compatible_brands.markup">isomiso2avc1mp41</property>
  <property name="meta.attr.encoder.markup">Lavf58.24.101</property>
  <property name="seekable">1</property>
  <property name="meta.media.sample_aspect_num">1</property>
  <property name="meta.media.sample_aspect_den">1</property>
  <property name="aspect_ratio">1</property>
  <property name="audio_index">-1</property>
  <property name="video_index">0</property>
  <property name="mute_on_pause">0</property>
  <property name="mlt_service">avformat</property>
  <property name="kdenlive:clipname"/>
  <property name="kdenlive:clip_type">2</property>
  <property name="kdenlive:folderid">-1</property>
  <property name="kdenlive:id">9</property>
  <property name="kdenlive:file_size">59523</property>
  <property name="kdenlive:file_hash">c40951343e4ea6757553c766957fb61e</property>
  <property name="meta.media.frame_rate_num">60</property>
  <property name="meta.media.frame_rate_den">1</property>
  <property name="meta.media.colorspace">709</property>
  <property name="meta.media.color_trc">2</property>
  <property name="meta.media.has_b_frames">2</property>
  <property name="meta.media.width">1920</property>
  <property name="meta.media.height">1080</property>
  <property name="meta.media.color_range">mpeg</property>
  <property name="meta.media.top_field_first">0</property>
  <property name="meta.media.progressive">1</property>
 </producer>
 <producer id="producer8" in="00:00:00.000" out="00:00:56.400">
  <property name="length">1411</property>
  <property name="eof">pause</property>
  <property name="resource">stdVBA_Downloading.mkv</property>
  <property name="meta.media.nb_streams">2</property>
  <property name="meta.media.0.stream.type">video</property>
  <property name="meta.media.0.stream.frame_rate">60</property>
  <property name="meta.media.0.stream.sample_aspect_ratio">0</property>
  <property name="meta.media.0.codec.width">1920</property>
  <property name="meta.media.0.codec.height">1080</property>
  <property name="meta.media.0.codec.rotate">0</property>
  <property name="meta.media.0.codec.pix_fmt">yuv420p</property>
  <property name="meta.media.0.codec.sample_aspect_ratio">1</property>
  <property name="meta.media.0.codec.colorspace">709</property>
  <property name="meta.media.0.codec.color_trc">1</property>
  <property name="meta.media.0.codec.name">h264</property>
  <property name="meta.media.0.codec.long_name">H.264 / AVC / MPEG-4 AVC / MPEG-4 part 10</property>
  <property name="meta.media.0.codec.bit_rate">0</property>
  <property name="meta.attr.0.stream.DURATION.markup">00:00:56.434000000</property>
  <property name="meta.media.1.stream.type">audio</property>
  <property name="meta.media.1.codec.sample_fmt">fltp</property>
  <property name="meta.media.1.codec.sample_rate">48000</property>
  <property name="meta.media.1.codec.channels">2</property>
  <property name="meta.media.1.codec.name">aac</property>
  <property name="meta.media.1.codec.long_name">AAC (Advanced Audio Coding)</property>
  <property name="meta.media.1.codec.bit_rate">0</property>
  <property name="meta.attr.1.stream.title.markup">simple_aac_recording0</property>
  <property name="meta.attr.1.stream.DURATION.markup">00:00:56.384000000</property>
  <property name="meta.attr.ENCODER.markup">Lavf60.3.100</property>
  <property name="seekable">1</property>
  <property name="meta.media.sample_aspect_num">1</property>
  <property name="meta.media.sample_aspect_den">1</property>
  <property name="aspect_ratio">1</property>
  <property name="audio_index">1</property>
  <property name="video_index">0</property>
  <property name="mute_on_pause">0</property>
  <property name="mlt_service">avformat-novalidate</property>
  <property name="kdenlive:clipname"/>
  <property name="meta.media.frame_rate_num">60</property>
  <property name="meta.media.frame_rate_den">1</property>
  <property name="meta.media.colorspace">709</property>
  <property name="meta.media.color_trc">1</property>
  <property name="meta.media.has_b_frames">1</property>
  <property name="meta.media.width">1920</property>
  <property name="meta.media.height">1080</property>
  <property name="meta.media.color_range">mpeg</property>
  <property name="meta.media.top_field_first">0</property>
  <property name="meta.media.progressive">1</property>
  <property name="kdenlive:clip_type">0</property>
  <property name="kdenlive:folderid">-1</property>
  <property name="kdenlive:id">10</property>
  <property name="kdenlive:file_size">5914450</property>
  <property name="kdenlive:file_hash">5314856f62f1048aab0634166bf1eb62</property>
  <property name="kdenlive:audio_max1">1</property>
 </producer>
 <producer id="producer9" in="00:00:00.000" out="00:00:12.720">
  <property name="length">319</property>
  <property name="eof">pause</property>
  <property name="resource">stdVBA_ImportModule.mkv</property>
  <property name="meta.media.nb_streams">2</property>
  <property name="meta.media.0.stream.type">video</property>
  <property name="meta.media.0.stream.frame_rate">60</property>
  <property name="meta.media.0.stream.sample_aspect_ratio">0</property>
  <property name="meta.media.0.codec.width">1920</property>
  <property name="meta.media.0.codec.height">1080</property>
  <property name="meta.media.0.codec.rotate">0</property>
  <property name="meta.media.0.codec.pix_fmt">yuv420p</property>
  <property name="meta.media.0.codec.sample_aspect_ratio">1</property>
  <property name="meta.media.0.codec.colorspace">709</property>
  <property name="meta.media.0.codec.color_trc">1</property>
  <property name="meta.media.0.codec.name">h264</property>
  <property name="meta.media.0.codec.long_name">H.264 / AVC / MPEG-4 AVC / MPEG-4 part 10</property>
  <property name="meta.media.0.codec.bit_rate">0</property>
  <property name="meta.attr.0.stream.DURATION.markup">00:00:12.767000000</property>
  <property name="meta.media.1.stream.type">audio</property>
  <property name="meta.media.1.codec.sample_fmt">fltp</property>
  <property name="meta.media.1.codec.sample_rate">48000</property>
  <property name="meta.media.1.codec.channels">2</property>
  <property name="meta.media.1.codec.name">aac</property>
  <property name="meta.media.1.codec.long_name">AAC (Advanced Audio Coding)</property>
  <property name="meta.media.1.codec.bit_rate">0</property>
  <property name="meta.attr.1.stream.title.markup">simple_aac_recording0</property>
  <property name="meta.attr.1.stream.DURATION.markup">00:00:12.736000000</property>
  <property name="meta.attr.ENCODER.markup">Lavf60.3.100</property>
  <property name="seekable">1</property>
  <property name="meta.media.sample_aspect_num">1</property>
  <property name="meta.media.sample_aspect_den">1</property>
  <property name="aspect_ratio">1</property>
  <property name="audio_index">1</property>
  <property name="video_index">0</property>
  <property name="mute_on_pause">0</property>
  <property name="mlt_service">avformat-novalidate</property>
  <property name="kdenlive:clipname"/>
  <property name="meta.media.frame_rate_num">60</property>
  <property name="meta.media.frame_rate_den">1</property>
  <property name="meta.media.colorspace">709</property>
  <property name="meta.media.color_trc">1</property>
  <property name="meta.media.has_b_frames">1</property>
  <property name="meta.media.width">1920</property>
  <property name="meta.media.height">1080</property>
  <property name="meta.media.color_range">mpeg</property>
  <property name="meta.media.top_field_first">0</property>
  <property name="meta.media.progressive">1</property>
  <property name="kdenlive:clip_type">0</property>
  <property name="kdenlive:folderid">-1</property>
  <property name="kdenlive:id">11</property>
  <property name="kdenlive:file_size">1136813</property>
  <property name="kdenlive:file_hash">74f6fb6bb660b0cac230e74c76bcbf57</property>
  <property name="kdenlive:audio_max1">1</property>
 </producer>
 <producer id="producer10" in="00:00:00.000" out="00:01:25.200">
  <property name="length">2131</property>
  <property name="eof">pause</property>
  <property name="resource">D:/Programming/Github/stdVBA-scripts/stdVBA-02-structure/published/stdVBA-02-structure.mp4</property>
  <property name="meta.media.nb_streams">2</property>
  <property name="meta.media.0.stream.type">video</property>
  <property name="meta.media.0.stream.frame_rate">25</property>
  <property name="meta.media.0.stream.sample_aspect_ratio">1</property>
  <property name="meta.media.0.codec.width">1920</property>
  <property name="meta.media.0.codec.height">1080</property>
  <property name="meta.media.0.codec.rotate">0</property>
  <property name="meta.media.0.codec.pix_fmt">yuv420p</property>
  <property name="meta.media.0.codec.sample_aspect_ratio">1</property>
  <property name="meta.media.0.codec.colorspace">709</property>
  <property name="meta.media.0.codec.color_trc">1</property>
  <property name="meta.media.0.codec.name">h264</property>
  <property name="meta.media.0.codec.long_name">H.264 / AVC / MPEG-4 AVC / MPEG-4 part 10</property>
  <property name="meta.media.0.codec.bit_rate">568127</property>
  <property name="meta.attr.0.stream.handler_name.markup">VideoHandler</property>
  <property name="meta.attr.0.stream.vendor_id.markup">[0][0][0][0]</property>
  <property name="meta.media.1.stream.type">audio</property>
  <property name="meta.media.1.codec.sample_fmt">fltp</property>
  <property name="meta.media.1.codec.sample_rate">48000</property>
  <property name="meta.media.1.codec.channels">2</property>
  <property name="meta.media.1.codec.name">aac</property>
  <property name="meta.media.1.codec.long_name">AAC (Advanced Audio Coding)</property>
  <property name="meta.media.1.codec.bit_rate">164878</property>
  <property name="meta.attr.1.stream.handler_name.markup">SoundHandler</property>
  <property name="meta.attr.1.stream.vendor_id.markup">[0][0][0][0]</property>
  <property name="meta.attr.major_brand.markup">isom</property>
  <property name="meta.attr.minor_version.markup">512</property>
  <property name="meta.attr.compatible_brands.markup">isomiso2avc1mp41</property>
  <property name="meta.attr.encoder.markup">Lavf59.16.100</property>
  <property name="seekable">1</property>
  <property name="meta.media.sample_aspect_num">1</property>
  <property name="meta.media.sample_aspect_den">1</property>
  <property name="aspect_ratio">1</property>
  <property name="audio_index">1</property>
  <property name="video_index">0</property>
  <property name="mute_on_pause">0</property>
  <property name="mlt_service">avformat-novalidate</property>
  <property name="kdenlive:clipname"/>
  <property name="meta.media.frame_rate_num">25</property>
  <property name="meta.media.frame_rate_den">1</property>
  <property name="meta.media.colorspace">709</property>
  <property name="meta.media.color_trc">1</property>
  <property name="meta.media.has_b_frames">2</property>
  <property name="meta.media.width">1920</property>
  <property name="meta.media.height">1080</property>
  <property name="meta.media.color_range">mpeg</property>
  <property name="meta.media.top_field_first">0</property>
  <property name="meta.media.progressive">1</property>
  <property name="kdenlive:clip_type">0</property>
  <property name="kdenlive:folderid">-1</property>
  <property name="kdenlive:id">12</property>
  <property name="kdenlive:file_size">7877274</property>
  <property name="kdenlive:file_hash">174305b851a0ff199b681607d5a7a0c3</property>
  <property name="kdenlive:audio_max1">207</property>
 </producer>
 <playlist id="main_bin">
  <property name="kdenlive:docproperties.activeTrack">4</property>
  <property name="kdenlive:docproperties.audioChannels">2</property>
  <property name="kdenlive:docproperties.audioTarget">1</property>
  <property name="kdenlive:docproperties.compositing">1</property>
  <property name="kdenlive:docproperties.disablepreview">0</property>
  <property name="kdenlive:docproperties.documentid">1722292853768</property>
  <property name="kdenlive:docproperties.enableTimelineZone">0</property>
  <property name="kdenlive:docproperties.enableexternalproxy">0</property>
  <property name="kdenlive:docproperties.enableproxy">0</property>
  <property name="kdenlive:docproperties.externalproxyparams"/>
  <property name="kdenlive:docproperties.generateimageproxy">0</property>
  <property name="kdenlive:docproperties.generateproxy">0</property>
  <property name="kdenlive:docproperties.groups">[
]
</property>
  <property name="kdenlive:docproperties.kdenliveversion">22.08.1</property>
  <property name="kdenlive:docproperties.position">0</property>
  <property name="kdenlive:docproperties.previewextension"/>
  <property name="kdenlive:docproperties.previewparameters"/>
  <property name="kdenlive:docproperties.profile">atsc_1080p_25</property>
  <property name="kdenlive:docproperties.proxyextension"/>
  <property name="kdenlive:docproperties.proxyimageminsize">2000</property>
  <property name="kdenlive:docproperties.proxyimagesize">800</property>
  <property name="kdenlive:docproperties.proxyminsize">1000</property>
  <property name="kdenlive:docproperties.proxyparams"/>
  <property name="kdenlive:docproperties.proxyresize">640</property>
  <property name="kdenlive:docproperties.rendercategory">Generic (HD for web, mobile devices...)</property>
  <property name="kdenlive:docproperties.rendercustomquality">-1</property>
  <property name="kdenlive:docproperties.renderendguide">-1</property>
  <property name="kdenlive:docproperties.renderexportaudio">0</property>
  <property name="kdenlive:docproperties.rendermode">0</property>
  <property name="kdenlive:docproperties.renderplay">0</property>
  <property name="kdenlive:docproperties.renderpreview">0</property>
  <property name="kdenlive:docproperties.renderprofile">MP4-H264/AAC</property>
  <property name="kdenlive:docproperties.renderratio">1</property>
  <property name="kdenlive:docproperties.renderrescale">0</property>
  <property name="kdenlive:docproperties.renderrescaleheight">540</property>
  <property name="kdenlive:docproperties.renderrescalewidth">960</property>
  <property name="kdenlive:docproperties.renderspeed">6</property>
  <property name="kdenlive:docproperties.renderstartguide">-1</property>
  <property name="kdenlive:docproperties.rendertcoverlay">0</property>
  <property name="kdenlive:docproperties.rendertctype">-1</property>
  <property name="kdenlive:docproperties.rendertwopass">0</property>
  <property name="kdenlive:docproperties.renderurl">D:/Programming/Github/stdVBA-scripts/stdVBA-03-getting-started/published/stdVBA-03-getting-started.mp4</property>
  <property name="kdenlive:docproperties.scrollPos">0</property>
  <property name="kdenlive:docproperties.seekOffset">30000</property>
  <property name="kdenlive:docproperties.version">1.04</property>
  <property name="kdenlive:docproperties.verticalzoom">1</property>
  <property name="kdenlive:docproperties.videoTarget">4</property>
  <property name="kdenlive:docproperties.zonein">0</property>
  <property name="kdenlive:docproperties.zoneout">75</property>
  <property name="kdenlive:docproperties.zoom">3</property>
  <property name="kdenlive:expandedFolders"/>
  <property name="kdenlive:documentnotes"/>
  <property name="xml_retain">1</property>
  <entry producer="producer1" in="00:00:00.000" out="00:01:37.920"/>
  <entry producer="producer3" in="00:00:00.000" out="00:00:10.720"/>
  <entry producer="producer4" in="00:00:00.000" out="00:00:01.920"/>
  <entry producer="producer5" in="00:00:00.000" out="00:07:25.040"/>
  <entry producer="producer0" in="00:00:00.000" out="00:00:07.920"/>
  <entry producer="producer2" in="00:00:00.000" out="00:00:07.600"/>
  <entry producer="producer6" in="00:00:00.000" out="00:00:46.560"/>
  <entry producer="producer7" in="00:00:00.000" out="00:00:04.360"/>
  <entry producer="producer8" in="00:00:00.000" out="00:00:56.400"/>
  <entry producer="producer9" in="00:00:00.000" out="00:00:12.720"/>
  <entry producer="producer10" in="00:00:00.000" out="00:01:25.200"/>
 </playlist>
 <producer id="black_track" in="00:00:00.000" out="00:21:16.120">
  <property name="length">2147483647</property>
  <property name="eof">continue</property>
  <property name="resource">black</property>
  <property name="aspect_ratio">1</property>
  <property name="mlt_service">color</property>
  <property name="mlt_image_format">rgba</property>
  <property name="set.test_audio">0</property>
 </producer>
 <producer id="producer11" in="00:00:00.000" out="00:07:25.040">
  <property name="length">11127</property>
  <property name="eof">pause</property>
  <property name="resource">D:/Programming/Github/stdVBA-scripts/SharedResources/BRING TO DEATH.m4a</property>
  <property name="audio_index">0</property>
  <property name="video_index">-1</property>
  <property name="mute_on_pause">0</property>
  <property name="mlt_service">avformat-novalidate</property>
  <property name="meta.media.nb_streams">2</property>
  <property name="meta.media.0.stream.type">audio</property>
  <property name="meta.media.0.codec.sample_fmt">fltp</property>
  <property name="meta.media.0.codec.sample_rate">44100</property>
  <property name="meta.media.0.codec.channels">2</property>
  <property name="meta.media.0.codec.name">aac</property>
  <property name="meta.media.0.codec.long_name">AAC (Advanced Audio Coding)</property>
  <property name="meta.media.0.codec.bit_rate">257987</property>
  <property name="meta.attr.0.stream.creation_time.markup">2022-01-26T19:40:31.000000Z</property>
  <property name="meta.attr.0.stream.language.markup">eng</property>
  <property name="meta.attr.0.stream.vendor_id.markup">[0][0][0][0]</property>
  <property name="meta.media.1.stream.type">video</property>
  <property name="meta.media.1.stream.frame_rate">nan</property>
  <property name="meta.media.1.stream.sample_aspect_ratio">0</property>
  <property name="meta.media.1.codec.width">318</property>
  <property name="meta.media.1.codec.height">318</property>
  <property name="meta.media.1.codec.rotate">0</property>
  <property name="meta.media.1.codec.pix_fmt">yuvj444p</property>
  <property name="meta.media.1.codec.sample_aspect_ratio">1</property>
  <property name="meta.media.1.codec.colorspace">601</property>
  <property name="meta.media.1.codec.name">mjpeg</property>
  <property name="meta.media.1.codec.long_name">MJPEG (Motion JPEG)</property>
  <property name="meta.media.1.codec.bit_rate">0</property>
  <property name="meta.attr.major_brand.markup">M4A </property>
  <property name="meta.attr.minor_version.markup">0</property>
  <property name="meta.attr.compatible_brands.markup">M4A mp42isom</property>
  <property name="meta.attr.creation_time.markup">2022-01-26T19:40:31.000000Z</property>
  <property name="meta.attr.artist.markup">ICKY</property>
  <property name="meta.attr.album.markup">NOT FORGOT</property>
  <property name="meta.attr.date.markup">2022</property>
  <property name="meta.attr.composer.markup">Rich Charlton</property>
  <property name="meta.attr.title.markup">BRING TO DEATH</property>
  <property name="meta.attr.encoder.markup">GarageBand for iOS 2.3.12</property>
  <property name="meta.attr.iTunSMPB.markup"> 00000000 00000840 00000191 00000000012B762F 00000000 00000000 00000000 00000000 00000000 00000000 00000000 00000000</property>
  <property name="seekable">1</property>
  <property name="meta.media.sample_aspect_num">72</property>
  <property name="meta.media.sample_aspect_den">72</property>
  <property name="aspect_ratio">1</property>
  <property name="kdenlive:clipname"/>
  <property name="kdenlive:clip_type">0</property>
  <property name="set.test_image">1</property>
  <property name="kdenlive:folderid">-1</property>
  <property name="kdenlive:id">5</property>
  <property name="kdenlive:file_size">14532755</property>
  <property name="kdenlive:file_hash">c94af757ff63aea6b4a9ac4fbe188f66</property>
  <property name="kdenlive:audio_max0">252</property>
  <property name="xml">was here</property>
  <property name="meta.media.frame_rate_num">90000</property>
  <property name="meta.media.frame_rate_den">1</property>
  <property name="meta.media.colorspace">601</property>
  <property name="meta.media.color_trc">2</property>
  <property name="meta.media.has_b_frames">0</property>
  <property name="meta.media.width">318</property>
  <property name="meta.media.height">318</property>
  <property name="meta.media.color_range">full</property>
  <property name="meta.media.top_field_first">0</property>
  <property name="meta.media.progressive">1</property>
  <property name="set.test_audio">0</property>
  <property name="kdenlive:orig_service">avformat-novalidate</property>
 </producer>
 <playlist id="playlist0">
  <property name="kdenlive:audio_track">1</property>
  <entry producer="producer11" in="00:00:00.000" out="00:01:16.080">
   <property name="kdenlive:id">5</property>
   <filter id="filter0">
    <property name="window">75</property>
    <property name="max_gain">20dB</property>
    <property name="level">00:00:00.000=0;00:01:04.720=-0.993088;00:01:06.040=10.0097</property>
    <property name="mlt_service">volume</property>
    <property name="kdenlive_id">volume</property>
    <property name="kdenlive:collapsed">0</property>
   </filter>
   <filter id="filter1" in="00:01:12.840" out="00:01:16.080">
    <property name="window">75</property>
    <property name="max_gain">20dB</property>
    <property name="mlt_service">volume</property>
    <property name="kdenlive_id">fadeout</property>
    <property name="gain">1</property>
    <property name="end">0</property>
    <property name="kdenlive:collapsed">0</property>
   </filter>
  </entry>
 </playlist>
 <playlist id="playlist1">
  <property name="kdenlive:audio_track">1</property>
 </playlist>
 <tractor id="tractor0" in="00:00:00.000" out="00:01:16.080">
  <property name="kdenlive:audio_track">1</property>
  <property name="kdenlive:trackheight">172</property>
  <property name="kdenlive:timeline_active">1</property>
  <property name="kdenlive:collapsed">0</property>
  <property name="kdenlive:track_name">BackTrack</property>
  <property name="kdenlive:thumbs_format"/>
  <property name="kdenlive:audio_rec"/>
  <track hide="video" producer="playlist0"/>
  <track hide="video" producer="playlist1"/>
  <filter id="filter2">
   <property name="window">75</property>
   <property name="max_gain">20dB</property>
   <property name="level">-20.1117</property>
   <property name="mlt_service">volume</property>
   <property name="internal_added">237</property>
   <property name="disable">0</property>
  </filter>
  <filter id="filter3">
   <property name="channel">-1</property>
   <property name="mlt_service">panner</property>
   <property name="internal_added">237</property>
   <property name="start">0.5</property>
   <property name="disable">1</property>
  </filter>
  <filter id="filter4">
   <property name="iec_scale">0</property>
   <property name="mlt_service">audiolevel</property>
   <property name="peak">1</property>
   <property name="disable">1</property>
  </filter>
 </tractor>
 <producer id="producer12" in="00:00:00.000" out="00:00:07.920">
  <property name="length">199</property>
  <property name="eof">pause</property>
  <property name="resource">D:/Programming/Github/stdVBA-scripts/SharedResources/intro.mp3</property>
  <property name="audio_index">0</property>
  <property name="video_index">-1</property>
  <property name="mute_on_pause">0</property>
  <property name="mlt_service">avformat-novalidate</property>
  <property name="meta.media.nb_streams">1</property>
  <property name="meta.media.0.stream.type">audio</property>
  <property name="meta.media.0.codec.sample_fmt">fltp</property>
  <property name="meta.media.0.codec.sample_rate">44100</property>
  <property name="meta.media.0.codec.channels">2</property>
  <property name="meta.media.0.codec.name">mp3float</property>
  <property name="meta.media.0.codec.long_name">MP3 (MPEG audio layer 3)</property>
  <property name="meta.media.0.codec.bit_rate">96000</property>
  <property name="meta.attr.0.stream.encoder.markup">LAME3.100</property>
  <property name="seekable">1</property>
  <property name="kdenlive:clipname"/>
  <property name="kdenlive:clip_type">1</property>
  <property name="kdenlive:folderid">-1</property>
  <property name="kdenlive:id">6</property>
  <property name="kdenlive:file_size">95921</property>
  <property name="kdenlive:file_hash">2de2a686c945bc9feffcf3c135fac11a</property>
  <property name="kdenlive:audio_max0">182</property>
  <property name="xml">was here</property>
  <property name="set.test_audio">0</property>
  <property name="set.test_image">1</property>
 </producer>
 <producer id="producer13" in="00:00:00.000" out="00:00:46.560">
  <property name="length">1165</property>
  <property name="eof">pause</property>
  <property name="resource">D:/Programming/Github/stdVBA-scripts/stdVBA-03-getting-started/audacity/voiceover.mp3</property>
  <property name="meta.media.nb_streams">1</property>
  <property name="meta.media.0.stream.type">audio</property>
  <property name="meta.media.0.codec.sample_fmt">fltp</property>
  <property name="meta.media.0.codec.sample_rate">48000</property>
  <property name="meta.media.0.codec.channels">1</property>
  <property name="meta.media.0.codec.name">mp3float</property>
  <property name="meta.media.0.codec.long_name">MP3 (MPEG audio layer 3)</property>
  <property name="meta.media.0.codec.bit_rate">96000</property>
  <property name="meta.attr.0.stream.encoder.markup">LAME3.100</property>
  <property name="seekable">1</property>
  <property name="audio_index">0</property>
  <property name="video_index">-1</property>
  <property name="mute_on_pause">0</property>
  <property name="mlt_service">avformat-novalidate</property>
  <property name="kdenlive:clipname"/>
  <property name="kdenlive:clip_type">1</property>
  <property name="kdenlive:folderid">-1</property>
  <property name="kdenlive:id">8</property>
  <property name="kdenlive:file_size">559403</property>
  <property name="kdenlive:file_hash">2bb584a026d76f56715878455a5160d2</property>
  <property name="xml">was here</property>
  <property name="set.test_audio">0</property>
  <property name="set.test_image">1</property>
 </producer>
 <producer id="producer14" in="00:00:00.000" out="00:00:01.920">
  <property name="length">49</property>
  <property name="eof">pause</property>
  <property name="resource">D:/Programming/Github/stdVBA-scripts/SharedResources/ThanksForWatching.mp3</property>
  <property name="audio_index">0</property>
  <property name="video_index">-1</property>
  <property name="mute_on_pause">0</property>
  <property name="mlt_service">avformat-novalidate</property>
  <property name="meta.media.nb_streams">1</property>
  <property name="meta.media.0.stream.type">audio</property>
  <property name="meta.media.0.codec.sample_fmt">fltp</property>
  <property name="meta.media.0.codec.sample_rate">44100</property>
  <property name="meta.media.0.codec.channels">2</property>
  <property name="meta.media.0.codec.name">mp3float</property>
  <property name="meta.media.0.codec.long_name">MP3 (MPEG audio layer 3)</property>
  <property name="meta.media.0.codec.bit_rate">96000</property>
  <property name="meta.attr.0.stream.encoder.markup">LAME3.100</property>
  <property name="seekable">1</property>
  <property name="kdenlive:clipname"/>
  <property name="kdenlive:clip_type">1</property>
  <property name="kdenlive:folderid">-1</property>
  <property name="kdenlive:id">4</property>
  <property name="kdenlive:file_size">23823</property>
  <property name="kdenlive:file_hash">00b88655232ae7f3fc375617758b8598</property>
  <property name="kdenlive:audio_max0">163</property>
  <property name="xml">was here</property>
  <property name="set.test_audio">0</property>
  <property name="set.test_image">1</property>
  <property name="kdenlive:orig_service">avformat-novalidate</property>
 </producer>
 <playlist id="playlist2">
  <property name="kdenlive:audio_track">1</property>
  <entry producer="producer12" in="00:00:00.000" out="00:00:07.920">
   <property name="kdenlive:id">6</property>
  </entry>
  <entry producer="producer13" in="00:00:00.000" out="00:00:01.440">
   <property name="kdenlive:id">8</property>
  </entry>
  <blank length="00:00:01.600"/>
  <entry producer="producer13" in="00:00:01.480" out="00:00:12.200">
   <property name="kdenlive:id">8</property>
  </entry>
  <blank length="00:00:02.800"/>
  <entry producer="producer13" in="00:00:12.240" out="00:00:17.320">
   <property name="kdenlive:id">8</property>
  </entry>
  <blank length="00:00:01.040"/>
  <entry producer="producer13" in="00:00:17.360" out="00:00:22.920">
   <property name="kdenlive:id">8</property>
  </entry>
  <blank length="00:00:02.840"/>
  <entry producer="producer13" in="00:00:22.960" out="00:00:39.280">
   <property name="kdenlive:id">8</property>
  </entry>
  <blank length="00:00:01.080"/>
  <entry producer="producer13" in="00:00:39.320" out="00:00:46.560">
   <property name="kdenlive:id">8</property>
  </entry>
  <blank length="00:00:00.840"/>
  <entry producer="producer14" in="00:00:00.000" out="00:00:01.920">
   <property name="kdenlive:id">4</property>
   <filter id="filter5" in="00:00:01.080" out="00:00:01.920">
    <property name="window">75</property>
    <property name="max_gain">20dB</property>
    <property name="mlt_service">volume</property>
    <property name="kdenlive_id">fadeout</property>
    <property name="gain">1</property>
    <property name="end">0</property>
    <property name="kdenlive:collapsed">0</property>
   </filter>
  </entry>
 </playlist>
 <playlist id="playlist3">
  <property name="kdenlive:audio_track">1</property>
 </playlist>
 <tractor id="tractor1" in="00:00:00.000" out="00:01:06.680">
  <property name="kdenlive:audio_track">1</property>
  <property name="kdenlive:trackheight">67</property>
  <property name="kdenlive:timeline_active">1</property>
  <property name="kdenlive:collapsed">28</property>
  <property name="kdenlive:thumbs_format"/>
  <property name="kdenlive:audio_rec"/>
  <track hide="video" producer="playlist2"/>
  <track hide="video" producer="playlist3"/>
  <filter id="filter6">
   <property name="window">75</property>
   <property name="max_gain">20dB</property>
   <property name="mlt_service">volume</property>
   <property name="internal_added">237</property>
   <property name="disable">1</property>
  </filter>
  <filter id="filter7">
   <property name="channel">-1</property>
   <property name="mlt_service">panner</property>
   <property name="internal_added">237</property>
   <property name="start">0.5</property>
   <property name="disable">1</property>
  </filter>
  <filter id="filter8">
   <property name="iec_scale">0</property>
   <property name="mlt_service">audiolevel</property>
   <property name="peak">1</property>
   <property name="disable">1</property>
  </filter>
 </tractor>
 <producer id="producer15" in="00:00:00.000" out="00:00:07.600">
  <property name="length">191</property>
  <property name="eof">pause</property>
  <property name="resource">D:/Programming/Github/stdVBA-scripts/SharedResources/intro.mp4</property>
  <property name="audio_index">1</property>
  <property name="video_index">0</property>
  <property name="mute_on_pause">0</property>
  <property name="mlt_service">avformat-novalidate</property>
  <property name="seekable">1</property>
  <property name="aspect_ratio">1</property>
  <property name="kdenlive:clipname"/>
  <property name="kdenlive:clip_type">0</property>
  <property name="kdenlive:folderid">-1</property>
  <property name="kdenlive:id">7</property>
  <property name="kdenlive:file_size">137755</property>
  <property name="kdenlive:file_hash">f345ee944666c43e40da4bcf2941a9cb</property>
  <property name="kdenlive:audio_max1">1</property>
  <property name="xml">was here</property>
  <property name="meta.media.nb_streams">2</property>
  <property name="meta.media.0.stream.type">video</property>
  <property name="meta.media.0.stream.frame_rate">25</property>
  <property name="meta.media.0.stream.sample_aspect_ratio">1</property>
  <property name="meta.media.0.codec.width">1920</property>
  <property name="meta.media.0.codec.height">1080</property>
  <property name="meta.media.0.codec.rotate">0</property>
  <property name="meta.media.0.codec.pix_fmt">yuv420p</property>
  <property name="meta.media.0.codec.sample_aspect_ratio">1</property>
  <property name="meta.media.0.codec.colorspace">709</property>
  <property name="meta.media.0.codec.color_trc">1</property>
  <property name="meta.media.0.codec.name">h264</property>
  <property name="meta.media.0.codec.long_name">H.264 / AVC / MPEG-4 AVC / MPEG-4 part 10</property>
  <property name="meta.media.0.codec.bit_rate">134269</property>
  <property name="meta.attr.0.stream.handler_name.markup">VideoHandler</property>
  <property name="meta.attr.0.stream.vendor_id.markup">[0][0][0][0]</property>
  <property name="meta.media.1.stream.type">audio</property>
  <property name="meta.media.1.codec.sample_fmt">fltp</property>
  <property name="meta.media.1.codec.sample_rate">48000</property>
  <property name="meta.media.1.codec.channels">2</property>
  <property name="meta.media.1.codec.name">aac</property>
  <property name="meta.media.1.codec.long_name">AAC (Advanced Audio Coding)</property>
  <property name="meta.media.1.codec.bit_rate">2285</property>
  <property name="meta.attr.1.stream.handler_name.markup">SoundHandler</property>
  <property name="meta.attr.1.stream.vendor_id.markup">[0][0][0][0]</property>
  <property name="meta.attr.major_brand.markup">isom</property>
  <property name="meta.attr.minor_version.markup">512</property>
  <property name="meta.attr.compatible_brands.markup">isomiso2avc1mp41</property>
  <property name="meta.attr.encoder.markup">Lavf59.16.100</property>
  <property name="meta.media.sample_aspect_num">1</property>
  <property name="meta.media.sample_aspect_den">1</property>
  <property name="meta.media.frame_rate_num">25</property>
  <property name="meta.media.frame_rate_den">1</property>
  <property name="meta.media.colorspace">709</property>
  <property name="meta.media.color_trc">1</property>
  <property name="meta.media.has_b_frames">2</property>
  <property name="meta.media.width">1920</property>
  <property name="meta.media.height">1080</property>
  <property name="meta.media.color_range">mpeg</property>
  <property name="meta.media.top_field_first">0</property>
  <property name="meta.media.progressive">1</property>
  <property name="set.test_audio">1</property>
  <property name="set.test_image">0</property>
 </producer>
 <producer id="producer16" in="00:00:00.000" out="02:54:01.040">
  <property name="length">261035</property>
  <property name="eof">pause</property>
  <property name="resource">0.005405:stdVBA_Downloading.mkv</property>
  <property name="aspect_ratio">1</property>
  <property name="meta.media.nb_streams">2</property>
  <property name="meta.media.0.stream.type">video</property>
  <property name="meta.media.0.stream.frame_rate">60</property>
  <property name="meta.media.0.stream.sample_aspect_ratio">0</property>
  <property name="meta.media.0.codec.width">1920</property>
  <property name="meta.media.0.codec.height">1080</property>
  <property name="meta.media.0.codec.rotate">0</property>
  <property name="meta.media.0.codec.pix_fmt">yuv420p</property>
  <property name="meta.media.0.codec.sample_aspect_ratio">1</property>
  <property name="meta.media.0.codec.colorspace">709</property>
  <property name="meta.media.0.codec.color_trc">1</property>
  <property name="meta.media.0.codec.name">h264</property>
  <property name="meta.media.0.codec.long_name">H.264 / AVC / MPEG-4 AVC / MPEG-4 part 10</property>
  <property name="meta.media.0.codec.bit_rate">0</property>
  <property name="meta.attr.0.stream.DURATION.markup">00:00:56.434000000</property>
  <property name="meta.media.1.stream.type">audio</property>
  <property name="meta.media.1.codec.sample_fmt">fltp</property>
  <property name="meta.media.1.codec.sample_rate">48000</property>
  <property name="meta.media.1.codec.channels">2</property>
  <property name="meta.media.1.codec.name">aac</property>
  <property name="meta.media.1.codec.long_name">AAC (Advanced Audio Coding)</property>
  <property name="meta.media.1.codec.bit_rate">0</property>
  <property name="meta.attr.1.stream.title.markup">simple_aac_recording0</property>
  <property name="meta.attr.1.stream.DURATION.markup">00:00:56.384000000</property>
  <property name="meta.attr.ENCODER.markup">Lavf60.3.100</property>
  <property name="seekable">1</property>
  <property name="meta.media.sample_aspect_num">1</property>
  <property name="meta.media.sample_aspect_den">1</property>
  <property name="audio_index">1</property>
  <property name="video_index">0</property>
  <property name="mute_on_pause">1</property>
  <property name="warp_speed">0.005405</property>
  <property name="warp_resource">stdVBA_Downloading.mkv</property>
  <property name="mlt_service">timewarp</property>
  <property name="set.test_audio">1</property>
  <property name="set.test_image">0</property>
  <property name="kdenlive:id">10</property>
  <property name="warp_pitch">0</property>
  <property name="meta.media.frame_rate_num">60</property>
  <property name="meta.media.frame_rate_den">1</property>
  <property name="meta.media.colorspace">709</property>
  <property name="meta.media.color_trc">1</property>
  <property name="meta.media.has_b_frames">1</property>
  <property name="meta.media.width">1920</property>
  <property name="meta.media.height">1080</property>
  <property name="meta.media.color_range">mpeg</property>
  <property name="meta.media.top_field_first">0</property>
  <property name="meta.media.progressive">1</property>
 </producer>
 <producer id="producer17" in="00:00:00.000" out="00:00:56.400">
  <property name="length">1411</property>
  <property name="eof">pause</property>
  <property name="resource">stdVBA_Downloading.mkv</property>
  <property name="audio_index">1</property>
  <property name="video_index">0</property>
  <property name="mute_on_pause">0</property>
  <property name="mlt_service">avformat-novalidate</property>
  <property name="seekable">1</property>
  <property name="aspect_ratio">1</property>
  <property name="kdenlive:clipname"/>
  <property name="kdenlive:clip_type">0</property>
  <property name="kdenlive:folderid">-1</property>
  <property name="kdenlive:id">10</property>
  <property name="kdenlive:file_size">5914450</property>
  <property name="kdenlive:file_hash">5314856f62f1048aab0634166bf1eb62</property>
  <property name="kdenlive:audio_max1">1</property>
  <property name="xml">was here</property>
  <property name="meta.media.nb_streams">2</property>
  <property name="meta.media.0.stream.type">video</property>
  <property name="meta.media.0.stream.frame_rate">60</property>
  <property name="meta.media.0.stream.sample_aspect_ratio">0</property>
  <property name="meta.media.0.codec.width">1920</property>
  <property name="meta.media.0.codec.height">1080</property>
  <property name="meta.media.0.codec.rotate">0</property>
  <property name="meta.media.0.codec.pix_fmt">yuv420p</property>
  <property name="meta.media.0.codec.sample_aspect_ratio">1</property>
  <property name="meta.media.0.codec.colorspace">709</property>
  <property name="meta.media.0.codec.color_trc">1</property>
  <property name="meta.media.0.codec.name">h264</property>
  <property name="meta.media.0.codec.long_name">H.264 / AVC / MPEG-4 AVC / MPEG-4 part 10</property>
  <property name="meta.media.0.codec.bit_rate">0</property>
  <property name="meta.attr.0.stream.DURATION.markup">00:00:56.434000000</property>
  <property name="meta.media.1.stream.type">audio</property>
  <property name="meta.media.1.codec.sample_fmt">fltp</property>
  <property name="meta.media.1.codec.sample_rate">48000</property>
  <property name="meta.media.1.codec.channels">2</property>
  <property name="meta.media.1.codec.name">aac</property>
  <property name="meta.media.1.codec.long_name">AAC (Advanced Audio Coding)</property>
  <property name="meta.media.1.codec.bit_rate">0</property>
  <property name="meta.attr.1.stream.title.markup">simple_aac_recording0</property>
  <property name="meta.attr.1.stream.DURATION.markup">00:00:56.384000000</property>
  <property name="meta.attr.ENCODER.markup">Lavf60.3.100</property>
  <property name="meta.media.sample_aspect_num">1</property>
  <property name="meta.media.sample_aspect_den">1</property>
  <property name="meta.media.frame_rate_num">60</property>
  <property name="meta.media.frame_rate_den">1</property>
  <property name="meta.media.colorspace">709</property>
  <property name="meta.media.color_trc">1</property>
  <property name="meta.media.has_b_frames">1</property>
  <property name="meta.media.width">1920</property>
  <property name="meta.media.height">1080</property>
  <property name="meta.media.color_range">mpeg</property>
  <property name="meta.media.top_field_first">0</property>
  <property name="meta.media.progressive">1</property>
  <property name="set.test_audio">1</property>
  <property name="set.test_image">0</property>
 </producer>
 <producer id="producer18" in="00:00:00.000" out="00:00:12.720">
  <property name="length">319</property>
  <property name="eof">pause</property>
  <property name="resource">stdVBA_ImportModule.mkv</property>
  <property name="audio_index">1</property>
  <property name="video_index">0</property>
  <property name="mute_on_pause">0</property>
  <property name="mlt_service">avformat-novalidate</property>
  <property name="seekable">1</property>
  <property name="aspect_ratio">1</property>
  <property name="kdenlive:clipname"/>
  <property name="kdenlive:clip_type">0</property>
  <property name="kdenlive:folderid">-1</property>
  <property name="kdenlive:id">11</property>
  <property name="kdenlive:file_size">1136813</property>
  <property name="kdenlive:file_hash">74f6fb6bb660b0cac230e74c76bcbf57</property>
  <property name="kdenlive:audio_max1">1</property>
  <property name="xml">was here</property>
  <property name="meta.media.nb_streams">2</property>
  <property name="meta.media.0.stream.type">video</property>
  <property name="meta.media.0.stream.frame_rate">60</property>
  <property name="meta.media.0.stream.sample_aspect_ratio">0</property>
  <property name="meta.media.0.codec.width">1920</property>
  <property name="meta.media.0.codec.height">1080</property>
  <property name="meta.media.0.codec.rotate">0</property>
  <property name="meta.media.0.codec.pix_fmt">yuv420p</property>
  <property name="meta.media.0.codec.sample_aspect_ratio">1</property>
  <property name="meta.media.0.codec.colorspace">709</property>
  <property name="meta.media.0.codec.color_trc">1</property>
  <property name="meta.media.0.codec.name">h264</property>
  <property name="meta.media.0.codec.long_name">H.264 / AVC / MPEG-4 AVC / MPEG-4 part 10</property>
  <property name="meta.media.0.codec.bit_rate">0</property>
  <property name="meta.attr.0.stream.DURATION.markup">00:00:12.767000000</property>
  <property name="meta.media.1.stream.type">audio</property>
  <property name="meta.media.1.codec.sample_fmt">fltp</property>
  <property name="meta.media.1.codec.sample_rate">48000</property>
  <property name="meta.media.1.codec.channels">2</property>
  <property name="meta.media.1.codec.name">aac</property>
  <property name="meta.media.1.codec.long_name">AAC (Advanced Audio Coding)</property>
  <property name="meta.media.1.codec.bit_rate">0</property>
  <property name="meta.attr.1.stream.title.markup">simple_aac_recording0</property>
  <property name="meta.attr.1.stream.DURATION.markup">00:00:12.736000000</property>
  <property name="meta.attr.ENCODER.markup">Lavf60.3.100</property>
  <property name="meta.media.sample_aspect_num">1</property>
  <property name="meta.media.sample_aspect_den">1</property>
  <property name="meta.media.frame_rate_num">60</property>
  <property name="meta.media.frame_rate_den">1</property>
  <property name="meta.media.colorspace">709</property>
  <property name="meta.media.color_trc">1</property>
  <property name="meta.media.has_b_frames">1</property>
  <property name="meta.media.width">1920</property>
  <property name="meta.media.height">1080</property>
  <property name="meta.media.color_range">mpeg</property>
  <property name="meta.media.top_field_first">0</property>
  <property name="meta.media.progressive">1</property>
  <property name="set.test_audio">1</property>
  <property name="set.test_image">0</property>
 </producer>
 <playlist id="playlist4">
  <entry producer="producer15" in="00:00:00.000" out="00:00:07.600">
   <property name="kdenlive:id">7</property>
   <filter id="filter9" in="00:00:07.360" out="00:00:07.600">
    <property name="start">1</property>
    <property name="level">1</property>
    <property name="mlt_service">brightness</property>
    <property name="kdenlive_id">fade_to_black</property>
    <property name="alpha">00:00:00.000=1;00:00:00.240=0</property>
    <property name="kdenlive:collapsed">0</property>
   </filter>
  </entry>
  <blank length="00:00:01.800"/>
  <entry producer="producer16" in="00:00:00.000" out="00:00:07.360">
   <property name="kdenlive:id">10</property>
  </entry>
  <entry producer="producer17" in="00:00:00.040" out="00:00:13.360">
   <property name="kdenlive:id">10</property>
  </entry>
  <entry producer="producer17" in="00:00:34.240" out="00:00:43.320">
   <property name="kdenlive:id">10</property>
  </entry>
  <entry producer="producer17" in="00:00:45.320" out="00:00:53.000">
   <property name="kdenlive:id">10</property>
  </entry>
  <entry producer="producer18" in="00:00:00.000" out="00:00:10.800">
   <property name="kdenlive:id">11</property>
  </entry>
  <blank length="00:00:06.880"/>
  <entry producer="producer3" in="00:00:00.000" out="00:00:10.720">
   <property name="kdenlive:id">3</property>
   <filter id="filter10">
    <property name="rotate_center">1</property>
    <property name="mlt_service">qtblend</property>
    <property name="kdenlive_id">qtblend</property>
    <property name="rect">00:00:00.000=327 -81 1247 701 1.000000</property>
    <property name="rotation">00:00:00.000=0</property>
    <property name="compositing">0</property>
    <property name="distort">0</property>
    <property name="kdenlive:collapsed">0</property>
   </filter>
   <filter id="filter11" in="00:00:10.200" out="00:00:10.720">
    <property name="start">1</property>
    <property name="level">1</property>
    <property name="mlt_service">brightness</property>
    <property name="kdenlive_id">fade_to_black</property>
    <property name="alpha">00:00:00.000=1;00:00:00.520=0</property>
    <property name="kdenlive:collapsed">0</property>
   </filter>
  </entry>
 </playlist>
 <playlist id="playlist5"/>
 <tractor id="tractor2" in="00:00:00.000" out="00:01:15.480">
  <property name="kdenlive:trackheight">67</property>
  <property name="kdenlive:timeline_active">1</property>
  <property name="kdenlive:collapsed">28</property>
  <property name="kdenlive:thumbs_format"/>
  <property name="kdenlive:audio_rec"/>
  <track hide="audio" producer="playlist4"/>
  <track hide="audio" producer="playlist5"/>
 </tractor>
 <producer id="producer19" in="00:00:00.000" out="00:00:49.680">
  <property name="length">1243</property>
  <property name="eof">pause</property>
  <property name="resource">0.256684:stdVBA_ImportModule.mkv</property>
  <property name="aspect_ratio">1</property>
  <property name="meta.media.nb_streams">2</property>
  <property name="meta.media.0.stream.type">video</property>
  <property name="meta.media.0.stream.frame_rate">60</property>
  <property name="meta.media.0.stream.sample_aspect_ratio">0</property>
  <property name="meta.media.0.codec.width">1920</property>
  <property name="meta.media.0.codec.height">1080</property>
  <property name="meta.media.0.codec.rotate">0</property>
  <property name="meta.media.0.codec.pix_fmt">yuv420p</property>
  <property name="meta.media.0.codec.sample_aspect_ratio">1</property>
  <property name="meta.media.0.codec.colorspace">709</property>
  <property name="meta.media.0.codec.color_trc">1</property>
  <property name="meta.media.0.codec.name">h264</property>
  <property name="meta.media.0.codec.long_name">H.264 / AVC / MPEG-4 AVC / MPEG-4 part 10</property>
  <property name="meta.media.0.codec.bit_rate">0</property>
  <property name="meta.attr.0.stream.DURATION.markup">00:00:12.767000000</property>
  <property name="meta.media.1.stream.type">audio</property>
  <property name="meta.media.1.codec.sample_fmt">fltp</property>
  <property name="meta.media.1.codec.sample_rate">48000</property>
  <property name="meta.media.1.codec.channels">2</property>
  <property name="meta.media.1.codec.name">aac</property>
  <property name="meta.media.1.codec.long_name">AAC (Advanced Audio Coding)</property>
  <property name="meta.media.1.codec.bit_rate">0</property>
  <property name="meta.attr.1.stream.title.markup">simple_aac_recording0</property>
  <property name="meta.attr.1.stream.DURATION.markup">00:00:12.736000000</property>
  <property name="meta.attr.ENCODER.markup">Lavf60.3.100</property>
  <property name="seekable">1</property>
  <property name="meta.media.sample_aspect_num">1</property>
  <property name="meta.media.sample_aspect_den">1</property>
  <property name="audio_index">1</property>
  <property name="video_index">0</property>
  <property name="mute_on_pause">1</property>
  <property name="warp_speed">0.256684</property>
  <property name="warp_resource">stdVBA_ImportModule.mkv</property>
  <property name="mlt_service">timewarp</property>
  <property name="set.test_audio">1</property>
  <property name="set.test_image">0</property>
  <property name="kdenlive:id">11</property>
  <property name="warp_pitch">0</property>
  <property name="meta.media.frame_rate_num">60</property>
  <property name="meta.media.frame_rate_den">1</property>
  <property name="meta.media.colorspace">709</property>
  <property name="meta.media.color_trc">1</property>
  <property name="meta.media.has_b_frames">1</property>
  <property name="meta.media.width">1920</property>
  <property name="meta.media.height">1080</property>
  <property name="meta.media.color_range">mpeg</property>
  <property name="meta.media.top_field_first">0</property>
  <property name="meta.media.progressive">1</property>
 </producer>
 <playlist id="playlist6">
  <blank length="00:00:57.880"/>
  <entry producer="producer19" in="00:00:42.160" out="00:00:49.600">
   <property name="kdenlive:id">11</property>
   <filter id="filter12" in="00:00:48.960" out="00:00:49.600">
    <property name="start">1</property>
    <property name="level">1</property>
    <property name="mlt_service">brightness</property>
    <property name="kdenlive_id">fade_to_black</property>
    <property name="alpha">00:00:00.000=1;00:00:00.640=0</property>
    <property name="kdenlive:collapsed">0</property>
   </filter>
  </entry>
 </playlist>
 <playlist id="playlist7"/>
 <tractor id="tractor3" in="00:00:00.000" out="00:01:05.320">
  <property name="kdenlive:trackheight">30</property>
  <property name="kdenlive:timeline_active">1</property>
  <property name="kdenlive:collapsed">28</property>
  <track producer="playlist6"/>
  <track producer="playlist7"/>
 </tractor>
 <producer id="producer20" in="00:00:00.000" out="00:00:04.360">
  <property name="length">110</property>
  <property name="eof">pause</property>
  <property name="resource">D:/Programming/Github/stdVBA-scripts/stdVBA-03-getting-started/motioncanvas/output/project.mp4</property>
  <property name="meta.media.nb_streams">1</property>
  <property name="meta.media.0.stream.type">video</property>
  <property name="meta.media.0.stream.frame_rate">60</property>
  <property name="meta.media.0.stream.sample_aspect_ratio">0</property>
  <property name="meta.media.0.codec.width">1920</property>
  <property name="meta.media.0.codec.height">1080</property>
  <property name="meta.media.0.codec.rotate">0</property>
  <property name="meta.media.0.codec.pix_fmt">yuv420p</property>
  <property name="meta.media.0.codec.sample_aspect_ratio">0</property>
  <property name="meta.media.0.codec.colorspace">709</property>
  <property name="meta.media.0.codec.name">h264</property>
  <property name="meta.media.0.codec.long_name">H.264 / AVC / MPEG-4 AVC / MPEG-4 part 10</property>
  <property name="meta.media.0.codec.bit_rate">100950</property>
  <property name="meta.attr.0.stream.handler_name.markup">VideoHandler</property>
  <property name="meta.attr.0.stream.vendor_id.markup">[0][0][0][0]</property>
  <property name="meta.attr.major_brand.markup">isom</property>
  <property name="meta.attr.minor_version.markup">512</property>
  <property name="meta.attr.compatible_brands.markup">isomiso2avc1mp41</property>
  <property name="meta.attr.encoder.markup">Lavf58.24.101</property>
  <property name="seekable">1</property>
  <property name="meta.media.sample_aspect_num">1</property>
  <property name="meta.media.sample_aspect_den">1</property>
  <property name="aspect_ratio">1</property>
  <property name="audio_index">-1</property>
  <property name="video_index">0</property>
  <property name="mute_on_pause">0</property>
  <property name="mlt_service">avformat-novalidate</property>
  <property name="kdenlive:clipname"/>
  <property name="kdenlive:clip_type">2</property>
  <property name="kdenlive:folderid">-1</property>
  <property name="kdenlive:id">9</property>
  <property name="kdenlive:file_size">59523</property>
  <property name="kdenlive:file_hash">c40951343e4ea6757553c766957fb61e</property>
  <property name="xml">was here</property>
  <property name="meta.media.frame_rate_num">60</property>
  <property name="meta.media.frame_rate_den">1</property>
  <property name="meta.media.colorspace">709</property>
  <property name="meta.media.color_trc">2</property>
  <property name="meta.media.has_b_frames">2</property>
  <property name="meta.media.width">1920</property>
  <property name="meta.media.height">1080</property>
  <property name="meta.media.color_range">mpeg</property>
  <property name="meta.media.top_field_first">0</property>
  <property name="meta.media.progressive">1</property>
  <property name="set.test_audio">1</property>
  <property name="set.test_image">0</property>
 </producer>
 <producer id="producer21" in="00:00:00.000" out="00:01:25.200">
  <property name="length">2131</property>
  <property name="eof">pause</property>
  <property name="resource">D:/Programming/Github/stdVBA-scripts/stdVBA-02-structure/published/stdVBA-02-structure.mp4</property>
  <property name="audio_index">1</property>
  <property name="video_index">0</property>
  <property name="mute_on_pause">0</property>
  <property name="mlt_service">avformat-novalidate</property>
  <property name="seekable">1</property>
  <property name="aspect_ratio">1</property>
  <property name="kdenlive:clipname"/>
  <property name="kdenlive:clip_type">0</property>
  <property name="kdenlive:folderid">-1</property>
  <property name="kdenlive:id">12</property>
  <property name="kdenlive:file_size">7877274</property>
  <property name="kdenlive:file_hash">174305b851a0ff199b681607d5a7a0c3</property>
  <property name="kdenlive:audio_max1">207</property>
  <property name="xml">was here</property>
  <property name="meta.media.nb_streams">2</property>
  <property name="meta.media.0.stream.type">video</property>
  <property name="meta.media.0.stream.frame_rate">25</property>
  <property name="meta.media.0.stream.sample_aspect_ratio">1</property>
  <property name="meta.media.0.codec.width">1920</property>
  <property name="meta.media.0.codec.height">1080</property>
  <property name="meta.media.0.codec.rotate">0</property>
  <property name="meta.media.0.codec.pix_fmt">yuv420p</property>
  <property name="meta.media.0.codec.sample_aspect_ratio">1</property>
  <property name="meta.media.0.codec.colorspace">709</property>
  <property name="meta.media.0.codec.color_trc">1</property>
  <property name="meta.media.0.codec.name">h264</property>
  <property name="meta.media.0.codec.long_name">H.264 / AVC / MPEG-4 AVC / MPEG-4 part 10</property>
  <property name="meta.media.0.codec.bit_rate">568127</property>
  <property name="meta.attr.0.stream.handler_name.markup">VideoHandler</property>
  <property name="meta.attr.0.stream.vendor_id.markup">[0][0][0][0]</property>
  <property name="meta.media.1.stream.type">audio</property>
  <property name="meta.media.1.codec.sample_fmt">fltp</property>
  <property name="meta.media.1.codec.sample_rate">48000</property>
  <property name="meta.media.1.codec.channels">2</property>
  <property name="meta.media.1.codec.name">aac</property>
  <property name="meta.media.1.codec.long_name">AAC (Advanced Audio Coding)</property>
  <property name="meta.media.1.codec.bit_rate">164878</property>
  <property name="meta.attr.1.stream.handler_name.markup">SoundHandler</property>
  <property name="meta.attr.1.stream.vendor_id.markup">[0][0][0][0]</property>
  <property name="meta.attr.major_brand.markup">isom</property>
  <property name="meta.attr.minor_version.markup">512</property>
  <property name="meta.attr.compatible_brands.markup">isomiso2avc1mp41</property>
  <property name="meta.attr.encoder.markup">Lavf59.16.100</property>
  <property name="meta.media.sample_aspect_num">1</property>
  <property name="meta.media.sample_aspect_den">1</property>
  <property name="meta.media.frame_rate_num">25</property>
  <property name="meta.media.frame_rate_den">1</property>
  <property name="meta.media.colorspace">709</property>
  <property name="meta.media.color_trc">1</property>
  <property name="meta.media.has_b_frames">2</property>
  <property name="meta.media.width">1920</property>
  <property name="meta.media.height">1080</property>
  <property name="meta.media.color_range">mpeg</property>
  <property name="meta.media.top_field_first">0</property>
  <property name="meta.media.progressive">1</property>
  <property name="set.test_audio">1</property>
  <property name="set.test_image">0</property>
 </producer>
 <producer id="producer22" in="00:00:00.000" out="00:26:59.640">
  <property name="length">40489</property>
  <property name="eof">pause</property>
  <property name="resource">0.052632:D:/Programming/Github/stdVBA-scripts/stdVBA-02-structure/published/stdVBA-02-structure.mp4</property>
  <property name="aspect_ratio">1</property>
  <property name="meta.media.nb_streams">2</property>
  <property name="meta.media.0.stream.type">video</property>
  <property name="meta.media.0.stream.frame_rate">25</property>
  <property name="meta.media.0.stream.sample_aspect_ratio">1</property>
  <property name="meta.media.0.codec.width">1920</property>
  <property name="meta.media.0.codec.height">1080</property>
  <property name="meta.media.0.codec.rotate">0</property>
  <property name="meta.media.0.codec.pix_fmt">yuv420p</property>
  <property name="meta.media.0.codec.sample_aspect_ratio">1</property>
  <property name="meta.media.0.codec.colorspace">709</property>
  <property name="meta.media.0.codec.color_trc">1</property>
  <property name="meta.media.0.codec.name">h264</property>
  <property name="meta.media.0.codec.long_name">H.264 / AVC / MPEG-4 AVC / MPEG-4 part 10</property>
  <property name="meta.media.0.codec.bit_rate">568127</property>
  <property name="meta.attr.0.stream.handler_name.markup">VideoHandler</property>
  <property name="meta.attr.0.stream.vendor_id.markup">[0][0][0][0]</property>
  <property name="meta.media.1.stream.type">audio</property>
  <property name="meta.media.1.codec.sample_fmt">fltp</property>
  <property name="meta.media.1.codec.sample_rate">48000</property>
  <property name="meta.media.1.codec.channels">2</property>
  <property name="meta.media.1.codec.name">aac</property>
  <property name="meta.media.1.codec.long_name">AAC (Advanced Audio Coding)</property>
  <property name="meta.media.1.codec.bit_rate">164878</property>
  <property name="meta.attr.1.stream.handler_name.markup">SoundHandler</property>
  <property name="meta.attr.1.stream.vendor_id.markup">[0][0][0][0]</property>
  <property name="meta.attr.major_brand.markup">isom</property>
  <property name="meta.attr.minor_version.markup">512</property>
  <property name="meta.attr.compatible_brands.markup">isomiso2avc1mp41</property>
  <property name="meta.attr.encoder.markup">Lavf59.16.100</property>
  <property name="seekable">1</property>
  <property name="meta.media.sample_aspect_num">1</property>
  <property name="meta.media.sample_aspect_den">1</property>
  <property name="audio_index">1</property>
  <property name="video_index">0</property>
  <property name="mute_on_pause">1</property>
  <property name="warp_speed">0.052632</property>
  <property name="warp_resource">D:/Programming/Github/stdVBA-scripts/stdVBA-02-structure/published/stdVBA-02-structure.mp4</property>
  <property name="mlt_service">timewarp</property>
  <property name="set.test_audio">1</property>
  <property name="set.test_image">0</property>
  <property name="kdenlive:id">12</property>
  <property name="warp_pitch">0</property>
  <property name="meta.media.frame_rate_num">25</property>
  <property name="meta.media.frame_rate_den">1</property>
  <property name="meta.media.colorspace">709</property>
  <property name="meta.media.color_trc">1</property>
  <property name="meta.media.has_b_frames">2</property>
  <property name="meta.media.width">1920</property>
  <property name="meta.media.height">1080</property>
  <property name="meta.media.color_range">mpeg</property>
  <property name="meta.media.top_field_first">0</property>
  <property name="meta.media.progressive">1</property>
 </producer>
 <playlist id="playlist8">
  <blank length="00:00:07.360"/>
  <entry producer="producer20" in="00:00:00.000" out="00:00:04.360">
   <property name="kdenlive:id">9</property>
   <filter id="filter13" out="00:00:00.320">
    <property name="start">1</property>
    <property name="level">1</property>
    <property name="mlt_service">brightness</property>
    <property name="kdenlive_id">fade_from_black</property>
    <property name="alpha">00:00:00.000=0;00:00:00.320=1</property>
    <property name="kdenlive:collapsed">0</property>
   </filter>
   <filter id="filter14" in="00:00:02.080" out="00:00:04.360">
    <property name="start">1</property>
    <property name="level">1</property>
    <property name="mlt_service">brightness</property>
    <property name="kdenlive_id">fade_to_black</property>
    <property name="alpha">00:00:00.000=1;00:00:02.280=0</property>
    <property name="kdenlive:collapsed">0</property>
   </filter>
  </entry>
  <blank length="00:00:46.720"/>
  <entry producer="producer21" in="00:00:34.280" out="00:00:38.840">
   <property name="kdenlive:id">12</property>
   <filter id="filter15">
    <property name="rotate_center">1</property>
    <property name="mlt_service">qtblend</property>
    <property name="kdenlive_id">qtblend</property>
    <property name="rect">00:00:34.280=271 112 1392 783 1.000000</property>
    <property name="rotation">00:00:34.280=0</property>
    <property name="compositing">0</property>
    <property name="distort">0</property>
    <property name="kdenlive:collapsed">0</property>
   </filter>
   <filter id="filter16" in="00:00:34.280" out="00:00:34.480">
    <property name="start">1</property>
    <property name="level">1</property>
    <property name="mlt_service">brightness</property>
    <property name="kdenlive_id">fade_from_black</property>
    <property name="alpha">00:00:00.000=0;00:00:00.200=1</property>
    <property name="kdenlive:collapsed">0</property>
   </filter>
  </entry>
  <entry producer="producer22" in="00:12:18.720" out="00:12:20.960">
   <property name="kdenlive:id">12</property>
   <property name="kdenlive:activeeffect">0</property>
   <filter id="filter17">
    <property name="rotate_center">1</property>
    <property name="mlt_service">qtblend</property>
    <property name="kdenlive_id">qtblend</property>
    <property name="rect">00:12:18.720=271 112 1392 783 1.000000</property>
    <property name="rotation">00:12:18.720=0</property>
    <property name="compositing">0</property>
    <property name="distort">0</property>
    <property name="kdenlive:collapsed">0</property>
   </filter>
   <filter id="filter18" in="00:12:20.360" out="00:12:20.960">
    <property name="start">1</property>
    <property name="level">1</property>
    <property name="mlt_service">brightness</property>
    <property name="kdenlive_id">fade_to_black</property>
    <property name="alpha">00:00:00.000=1;00:00:00.600=0</property>
    <property name="kdenlive:collapsed">0</property>
   </filter>
  </entry>
 </playlist>
 <playlist id="playlist9"/>
 <tractor id="tractor4" in="00:00:00.000" out="00:01:05.320">
  <property name="kdenlive:trackheight">42</property>
  <property name="kdenlive:timeline_active">1</property>
  <property name="kdenlive:collapsed">28</property>
  <property name="kdenlive:thumbs_format"/>
  <property name="kdenlive:audio_rec"/>
  <track hide="audio" producer="playlist8"/>
  <track hide="audio" producer="playlist9"/>
 </tractor>
 <tractor id="tractor5" in="00:00:00.000" out="00:21:16.120">
  <track producer="black_track"/>
  <track producer="tractor0"/>
  <track producer="tractor1"/>
  <track producer="tractor2"/>
  <track producer="tractor3"/>
  <track producer="tractor4"/>
  <transition id="transition0">
   <property name="a_track">0</property>
   <property name="b_track">1</property>
   <property name="mlt_service">mix</property>
   <property name="kdenlive_id">mix</property>
   <property name="internal_added">237</property>
   <property name="always_active">1</property>
   <property name="accepts_blanks">1</property>
   <property name="sum">1</property>
  </transition>
  <transition id="transition1">
   <property name="a_track">0</property>
   <property name="b_track">2</property>
   <property name="mlt_service">mix</property>
   <property name="kdenlive_id">mix</property>
   <property name="internal_added">237</property>
   <property name="always_active">1</property>
   <property name="accepts_blanks">1</property>
   <property name="sum">1</property>
  </transition>
  <transition id="transition2">
   <property name="a_track">0</property>
   <property name="b_track">3</property>
   <property name="version">0.1</property>
   <property name="mlt_service">frei0r.cairoblend</property>
   <property name="kdenlive_id">frei0r.cairoblend</property>
   <property name="internal_added">237</property>
   <property name="always_active">1</property>
  </transition>
  <transition id="transition3">
   <property name="a_track">0</property>
   <property name="b_track">4</property>
   <property name="version">0.1</property>
   <property name="mlt_service">frei0r.cairoblend</property>
   <property name="kdenlive_id">frei0r.cairoblend</property>
   <property name="internal_added">237</property>
   <property name="always_active">1</property>
  </transition>
  <transition id="transition4">
   <property name="a_track">0</property>
   <property name="b_track">5</property>
   <property name="version">0.1</property>
   <property name="mlt_service">frei0r.cairoblend</property>
   <property name="kdenlive_id">frei0r.cairoblend</property>
   <property name="internal_added">237</property>
   <property name="always_active">1</property>
  </transition>
  <filter id="filter19">
   <property name="window">75</property>
   <property name="max_gain">20dB</property>
   <property name="mlt_service">volume</property>
   <property name="internal_added">237</property>
   <property name="disable">1</property>
  </filter>
  <filter id="filter20">
   <property name="channel">-1</property>
   <property name="mlt_service">panner</property>
   <property name="internal_added">237</property>
   <property name="start">0.5</property>
   <property name="disable">1</property>
  </filter>
  <filter id="filter21">
   <property name="iec_scale">0</property>
   <property name="mlt_service">audiolevel</property>
   <property name="peak">1</property>
   <property name="disable">1</property>
  </filter>
 </tractor>
</mlt>
